# xmcd CD database file
#
# Track frame offsets:
#	150
#	5623
#	25946
#	48666
#	68696
#	84485
#	101706
#	119060
#	134849
#	155412
#	173841
#	182776
#	205207
#	222862
#	238998
#
# Disc length: 3461 seconds
#
# Revision: 2
# Processed by: cddbd v1.4b41PL1 Copyright (c) Steve Scherf et al.
# Submitted via: Feurio! 1.52 - http://www.feurio.com
#
DISCID=df0d830f
DTITLE=Confidential - Confidential-Independence Day
DYEAR=1900
DGENRE=
TTITLE0=Into
TTITLE1=Rush
TTITLE2=Life
TTITLE3=Tell Me
TTITLE4=Worldwide
TTITLE5=Party
TTITLE6=Hustlers
TTITLE7=Spit
TTITLE8=One Time
TTITLE9=Celebrate
TTITLE10=10 Fuck Commandments
TTITLE11=Mental Slugs
TTITLE12=Scheeme
TTITLE13=We Can Dance
TTITLE14=You Got Me
EXTD=
EXTT0=
EXTT1=
EXTT2=
EXTT3=
EXTT4=
EXTT5=
EXTT6=
EXTT7=
EXTT8=
EXTT9=
EXTT10=
EXTT11=
EXTT12=
EXTT13=
EXTT14=
PLAYORDER=
